<svg version="1.1" xmlns="http://www.w3.org/2000/svg" xmlns:xlink="http://www.w3.org/1999/xlink" viewBox="0 0 172 172"><g fill="none" fill-rule="nonzero" stroke="none" stroke-width="1" stroke-linecap="butt" stroke-linejoin="miter" stroke-miterlimit="10" stroke-dasharray="" stroke-dashoffset="0" font-family="none" font-weight="none" font-size="none" text-anchor="none" style="mix-blend-mode: normal"><path d="M0,172v-172h172v172z" fill="none"></path><g fill="#000000"><path d="M86,17.2c-37.92867,0 -68.8,30.87133 -68.8,68.8c0,37.92867 30.87133,68.8 68.8,68.8c37.92867,0 68.8,-30.87133 68.8,-68.8c0.02924,-2.06765 -1.05709,-3.99087 -2.843,-5.03322c-1.78592,-1.04236 -3.99474,-1.04236 -5.78066,0c-1.78592,1.04236 -2.87225,2.96558 -2.843,5.03322c0,31.73133 -25.60201,57.33333 -57.33333,57.33333c-31.73133,0 -57.33333,-25.60201 -57.33333,-57.33333c0,-31.73133 25.60201,-57.33333 57.33333,-57.33333c14.40198,0 27.46542,5.33787 37.52422,14.07578l-14.59089,14.59089h34.4v-34.4l-11.69062,11.69063c-12.15721,-10.79982 -28.13397,-17.42396 -45.64271,-17.42396z"></path></g></g></svg>