<svg version="1.1" xmlns="http://www.w3.org/2000/svg" xmlns:xlink="http://www.w3.org/1999/xlink" viewBox="0 0 172 172"><g fill="none" fill-rule="nonzero" stroke="none" stroke-width="1" stroke-linecap="butt" stroke-linejoin="miter" stroke-miterlimit="10" stroke-dasharray="" stroke-dashoffset="0" font-family="none" font-weight="none" font-size="none" text-anchor="none" style="mix-blend-mode: normal"><path d="M0,172v-172h172v172z" fill="none"></path><g fill="#000000"><path d="M102.95364,17.1776c-0.51522,0.03227 -1.02372,0.13397 -1.51172,0.30234l-80.26666,25.90078c-2.3717,0.76426 -3.97832,2.97279 -3.97526,5.46458v65.82135c-0.02924,2.06765 1.05709,3.99087 2.843,5.03322c1.78592,1.04236 3.99474,1.04236 5.78066,0c1.78592,-1.04236 2.87225,-2.96558 2.843,-5.03322v-61.65573l76.29141,-24.62422c2.66689,-0.81991 4.35648,-3.44047 4.00259,-6.20802c-0.35389,-2.76755 -2.64852,-4.87863 -5.43592,-5.0011c-0.19025,-0.00949 -0.38085,-0.00949 -0.5711,0zM125.88698,34.3776c-0.51522,0.03227 -1.02372,0.13397 -1.51172,0.30234l-80.26666,25.90078c-2.3717,0.76426 -3.97832,2.97279 -3.97526,5.46458v65.82136c-0.02924,2.06765 1.05709,3.99087 2.843,5.03322c1.78592,1.04236 3.99474,1.04236 5.78066,0c1.78592,-1.04236 2.87225,-2.96558 2.843,-5.03322v-61.65573l76.29141,-24.62422c2.66689,-0.81991 4.35648,-3.44047 4.00259,-6.20802c-0.35389,-2.76755 -2.64852,-4.87863 -5.43592,-5.0011c-0.19025,-0.00949 -0.38085,-0.00949 -0.5711,0zM148.62995,51.6112c-0.44801,0.03395 -0.89539,0.12685 -1.33255,0.26875l-80.26667,25.90078c-2.36213,0.76827 -3.96406,2.97632 -3.96406,5.46458v65.82136c0,1.86333 0.90488,3.60859 2.42995,4.68073c0.9804,0.69373 2.13379,1.05261 3.30339,1.05261c0.64787,0 1.30111,-0.11234 1.92604,-0.33594l80.26667,-28.66667c2.28187,-0.8084 3.80729,-2.97219 3.80729,-5.39739v-63.06667c0,-1.82893 -0.87782,-3.55234 -2.36276,-4.63594c-1.1094,-0.8084 -2.46328,-1.18805 -3.80729,-1.0862z"></path></g></g></svg>